<?xml version="1.0" encoding="UTF-8"?>
<svg xmlns="http://www.w3.org/2000/svg" viewBox="0 0 1024 768">
    <defs>
        <style>
      .cls-1 {
        fill: #fff;
      }

      .cls-2 {
        fill: #19091e;
      }
        </style>
    </defs>
    <g id="Layer_2" data-name="Layer 2">
        <rect width="1024" height="768" rx="68.58" ry="68.58"/>
    </g>
    <g id="Layer_3" data-name="Layer 3">
        <rect class="cls-2" x="485" y="107" width="437" height="40" rx="20" ry="20"/>
        <rect class="cls-2" x="99" y="412" width="270" height="40" rx="20" ry="20"/>
        <rect class="cls-2" x="99" y="493.67" width="508" height="40" rx="20" ry="20"/>
        <rect class="cls-2" x="99" y="575.33" width="508" height="40" rx="20" ry="20"/>
        <rect class="cls-2" x="99" y="657" width="820" height="40" rx="20" ry="20"/>
        <rect class="cls-2" x="485" y="182" width="437" height="40" rx="20" ry="20"/>
        <rect class="cls-2" x="485" y="257" width="186.33" height="40" rx="20" ry="20"/>
        <path class="cls-2" d="M293,145.68c-9.94,0-18,7.74-18,17.28v149.76c0,9.54,8.06,17.28,18,17.28h36v-28.8c0-9.54,8.06-17.28,18-17.28s18,7.74,18,17.28v28.8h36c9.94,0,18-7.74,18-17.28V162.96c0-9.54-8.06-17.28-18-17.28h-108Zm6,86.4c0-3.17,2.7-5.76,6-5.76h12c3.3,0,6,2.59,6,5.76v11.52c0,3.17-2.7,5.76-6,5.76h-12c-3.3,0-6-2.59-6-5.76v-11.52Zm42-5.76h12c3.3,0,6,2.59,6,5.76v11.52c0,3.17-2.7,5.76-6,5.76h-12c-3.3,0-6-2.59-6-5.76v-11.52c0-3.17,2.7-5.76,6-5.76Zm30,5.76c0-3.17,2.7-5.76,6-5.76h12c3.3,0,6,2.59,6,5.76v11.52c0,3.17-2.7,5.76-6,5.76h-12c-3.3,0-6-2.59-6-5.76v-11.52Zm-66-51.84h12c3.3,0,6,2.59,6,5.76v11.52c0,3.17-2.7,5.76-6,5.76h-12c-3.3,0-6-2.59-6-5.76v-11.52c0-3.17,2.7-5.76,6-5.76Zm30,5.76c0-3.17,2.7-5.76,6-5.76h12c3.3,0,6,2.59,6,5.76v11.52c0,3.17-2.7,5.76-6,5.76h-12c-3.3,0-6-2.59-6-5.76v-11.52Zm42-5.76h12c3.3,0,6,2.59,6,5.76v11.52c0,3.17-2.7,5.76-6,5.76h-12c-3.3,0-6-2.59-6-5.76v-11.52c0-3.17,2.7-5.76,6-5.76Z"/>
        <path class="cls-2" d="M124,74c-13.8,0-25,10.75-25,24v208c0,13.25,11.2,24,25,24h50v-40c0-13.25,11.2-24,25-24s25,10.75,25,24v40h50c13.8,0,25-10.75,25-24V98c0-13.25-11.2-24-25-24H124Zm8.33,120c0-4.4,3.75-8,8.33-8h16.67c4.58,0,8.33,3.6,8.33,8v16c0,4.4-3.75,8-8.33,8h-16.67c-4.58,0-8.33-3.6-8.33-8v-16Zm58.33-8h16.67c4.58,0,8.33,3.6,8.33,8v16c0,4.4-3.75,8-8.33,8h-16.67c-4.58,0-8.33-3.6-8.33-8v-16c0-4.4,3.75-8,8.33-8Zm41.67,8c0-4.4,3.75-8,8.33-8h16.67c4.58,0,8.33,3.6,8.33,8v16c0,4.4-3.75,8-8.33,8h-16.67c-4.58,0-8.33-3.6-8.33-8v-16Zm-91.67-72h16.67c4.58,0,8.33,3.6,8.33,8v16c0,4.4-3.75,8-8.33,8h-16.67c-4.58,0-8.33-3.6-8.33-8v-16c0-4.4,3.75-8,8.33-8Zm41.67,8c0-4.4,3.75-8,8.33-8h16.67c4.58,0,8.33,3.6,8.33,8v16c0,4.4-3.75,8-8.33,8h-16.67c-4.58,0-8.33-3.6-8.33-8v-16Zm58.33-8h16.67c4.58,0,8.33,3.6,8.33,8v16c0,4.4-3.75,8-8.33,8h-16.67c-4.58,0-8.33-3.6-8.33-8v-16c0-4.4,3.75-8,8.33-8Z"/>
    </g>
    <g id="Layer_5" data-name="Layer 5">
        <path class="cls-2" d="M789.44,471.84l-39.64,32.11c-6.59,5.32-7.86,14.91-2.87,21.75,5.28,7.29,15.56,8.72,22.65,3.19l40.66-31.61c2.87-2.21,6.96-1.72,9.21,1.15s1.72,6.96-1.15,9.21l-8.56,6.63,56.92,52.42v-77.32h-.29l-1.6-1.02-29.73-19.04c-6.27-4.01-13.6-6.14-21.05-6.14-8.93,0-17.61,3.07-24.57,8.68Zm9.34,50.94l-21.17,16.46c-12.9,10.07-31.61,7.45-41.28-5.82-9.09-12.49-6.8-29.94,5.2-39.64l34.07-27.56c-4.75-2.01-9.87-3.03-15.07-3.03-7.7-.04-15.19,2.25-21.62,6.51l-29.49,19.66v91.73h11.55l37.43,34.15c8.03,7.33,20.43,6.76,27.77-1.27,2.25-2.5,3.77-5.41,4.55-8.44l6.96,6.39c7.99,7.33,20.43,6.8,27.77-1.19,1.84-2.01,3.19-4.34,4.05-6.76,7.94,5.32,18.76,4.22,25.43-3.07,7.33-7.99,6.8-20.43-1.19-27.77l-54.96-50.37h0Zm-135.22-33.42c-3.6,0-6.55,2.95-6.55,6.55v85.18c0,7.25,5.86,13.1,13.1,13.1h13.1c7.25,0,13.1-5.86,13.1-13.1v-91.73h-32.76Zm13.1,78.63c3.62,0,6.55,2.93,6.55,6.55s-2.93,6.55-6.55,6.55-6.55-2.93-6.55-6.55,2.93-6.55,6.55-6.55Zm203.12-78.63v91.73c0,7.25,5.86,13.1,13.1,13.1h13.1c7.25,0,13.1-5.86,13.1-13.1v-85.18c0-3.6-2.95-6.55-6.55-6.55h-32.76Zm13.1,85.18c0-3.62,2.93-6.55,6.55-6.55s6.55,2.93,6.55,6.55-2.93,6.55-6.55,6.55-6.55-2.93-6.55-6.55Z"/>
    </g>
</svg>