<?xml version="1.0" encoding="UTF-8"?>
<svg xmlns="http://www.w3.org/2000/svg" viewBox="0 0 1024 768">
    <defs>
        <style>
      .cls-1 {
        fill: #fff;
      }

      .cls-2 {
        fill: #19091e;
      }
        </style>
    </defs>
    <g id="Layer_2" data-name="Layer 2">
        <rect width="1024" height="768" rx="68.58" ry="68.58"/>
    </g>
    <g id="Layer_1" data-name="Layer 1">
        <path class="cls-2" d="M124,74c-13.8,0-25,10.75-25,24v208c0,13.25,11.2,24,25,24h50v-40c0-13.25,11.2-24,25-24s25,10.75,25,24v40h50c13.8,0,25-10.75,25-24V98c0-13.25-11.2-24-25-24H124Zm8.33,120c0-4.4,3.75-8,8.33-8h16.67c4.58,0,8.33,3.6,8.33,8v16c0,4.4-3.75,8-8.33,8h-16.67c-4.58,0-8.33-3.6-8.33-8v-16Zm58.33-8h16.67c4.58,0,8.33,3.6,8.33,8v16c0,4.4-3.75,8-8.33,8h-16.67c-4.58,0-8.33-3.6-8.33-8v-16c0-4.4,3.75-8,8.33-8Zm41.67,8c0-4.4,3.75-8,8.33-8h16.67c4.58,0,8.33,3.6,8.33,8v16c0,4.4-3.75,8-8.33,8h-16.67c-4.58,0-8.33-3.6-8.33-8v-16Zm-91.67-72h16.67c4.58,0,8.33,3.6,8.33,8v16c0,4.4-3.75,8-8.33,8h-16.67c-4.58,0-8.33-3.6-8.33-8v-16c0-4.4,3.75-8,8.33-8Zm41.67,8c0-4.4,3.75-8,8.33-8h16.67c4.58,0,8.33,3.6,8.33,8v16c0,4.4-3.75,8-8.33,8h-16.67c-4.58,0-8.33-3.6-8.33-8v-16Zm58.33-8h16.67c4.58,0,8.33,3.6,8.33,8v16c0,4.4-3.75,8-8.33,8h-16.67c-4.58,0-8.33-3.6-8.33-8v-16c0-4.4,3.75-8,8.33-8Z"/>
    </g>
    <g id="Layer_3" data-name="Layer 3">
        <rect class="cls-2" x="389" y="77" width="226" height="40" rx="20" ry="20"/>
        <rect class="cls-2" x="99" y="400" width="200" height="40" rx="20" ry="20"/>
        <rect class="cls-2" x="99" y="476.67" width="200" height="40" rx="20" ry="20"/>
        <rect class="cls-2" x="99" y="553.33" width="200" height="40" rx="20" ry="20"/>
        <rect class="cls-2" x="99" y="630" width="200" height="40" rx="20" ry="20"/>
        <rect class="cls-2" x="389" y="152" width="226" height="40" rx="20" ry="20"/>
        <rect class="cls-2" x="389" y="227" width="226" height="40" rx="20" ry="20"/>
        <rect class="cls-2" x="389" y="302" width="142" height="40" rx="20" ry="20"/>
    </g>
    <g id="Layer_5" data-name="Layer 5">
        <path class="cls-2" d="M804.22,186.62V82.14c0-4.21,3.27-7.76,7.48-7.76,57.86,0,104.77,46.91,104.77,104.77,0,4.21-3.55,7.48-7.76,7.48h-104.49Zm-127.22,14.97c0-56.74,42.14-103.69,96.82-111.18,4.3-.61,7.95,2.85,7.95,7.2v111.46l73.2,73.2c3.13,3.13,2.9,8.28-.7,10.8-18.33,13.1-40.79,20.77-65.01,20.77-61.97,0-112.25-50.23-112.25-112.25Zm246.21,7.48c4.35,0,7.76,3.65,7.2,7.95-3.6,26.15-16.18,49.39-34.56,66.56-2.81,2.62-7.2,2.43-9.92-.33l-74.23-74.18h111.51Z"/>
    </g>
    <g id="Layer_4" data-name="Layer 4">
        <path class="cls-2" d="M371.06,431.44c9.44,0,17.06,7.62,17.06,17.06v179.16c0,4.69,3.84,8.53,8.53,8.53h213.28c9.44,0,17.06,7.62,17.06,17.06s-7.62,17.06-17.06,17.06h-213.28c-23.57,0-42.66-19.09-42.66-42.66v-179.16c0-9.44,7.62-17.06,17.06-17.06Zm68.25,102.38c9.44,0,17.06,7.62,17.06,17.06v34.12c0,9.44-7.62,17.06-17.06,17.06s-17.06-7.62-17.06-17.06v-34.12c0-9.44,7.62-17.06,17.06-17.06Zm68.25-34.12v85.31c0,9.44-7.62,17.06-17.06,17.06s-17.06-7.62-17.06-17.06v-85.31c0-9.44,7.62-17.06,17.06-17.06s17.06,7.62,17.06,17.06Zm34.12,17.06c9.44,0,17.06,7.62,17.06,17.06v51.19c0,9.44-7.62,17.06-17.06,17.06s-17.06-7.62-17.06-17.06v-51.19c0-9.44,7.62-17.06,17.06-17.06Zm68.25-51.19v119.44c0,9.44-7.62,17.06-17.06,17.06s-17.06-7.62-17.06-17.06v-119.44c0-9.44,7.62-17.06,17.06-17.06s17.06,7.62,17.06,17.06Z"/>
        <path class="cls-2" d="M722.88,457.07c0-9.09-7.35-16.44-16.44-16.44s-16.44,7.35-16.44,16.44v172.59c0,22.7,18.39,41.09,41.09,41.09h205.47c9.09,0,16.44-7.35,16.44-16.44s-7.35-16.44-16.44-16.44h-205.47c-4.52,0-8.22-3.7-8.22-8.22v-172.59Zm208.86,44.48c6.42-6.42,6.42-16.85,0-23.27s-16.85-6.42-23.27,0l-54.09,54.14-29.48-29.48c-6.42-6.42-16.85-6.42-23.27,0l-57.53,57.53c-6.42,6.42-6.42,16.85,0,23.27s16.85,6.42,23.27,0l45.92-45.87,29.48,29.48c6.42,6.42,16.85,6.42,23.27,0l65.75-65.75-.05-.05Z"/>
    </g>
</svg>