<?xml version="1.0" encoding="UTF-8"?>
<svg xmlns="http://www.w3.org/2000/svg" viewBox="0 0 1024 768">
    <defs>
        <style>
      .cls-1 {
        fill: #fff;
      }

      .cls-2 {
        fill: #19091e;
      }
        </style>
    </defs>
    <g id="Layer_2" data-name="Layer 2">
        <rect width="1024" height="768" rx="68.58" ry="68.58"/>
    </g>
    <g id="Layer_1" data-name="Layer 1">
        <path class="cls-2" d="M192.59,170.14c3.82,19.47,20.93,33.67,40.95,33.67s37.13-14.19,40.95-33.67l6.37-32.76c3.64-26.57-16.92-50.05-43.49-50.05h-7.64c-26.57,0-47.13,23.48-43.49,49.86l6.37,32.94Zm149.77,136.49l-13.83-65.15c-.91-4.19-4-7.64-8.01-9.1l-44.4-15.83-27.84,39.85-3.46-29.85c-.18-1.82-1.82-3.28-3.82-3.28h-15.29c-2,0-3.46,1.46-3.82,3.28l-3.46,29.85-27.48-39.85-44.4,15.83c-4,1.46-7.1,4.91-8.01,9.1l-13.83,65.15c-.73,3.28,1.82,6.37,5.1,6.37h207.46c3.28,0,5.82-3.09,5.1-6.37Z"/>
    </g>
    <g id="Layer_3" data-name="Layer 3">
        <rect class="cls-2" x="404" y="106" width="514" height="40" rx="20" ry="20"/>
        <rect class="cls-2" x="235" y="376" width="683" height="40" rx="20" ry="20"/>
        <rect class="cls-2" x="235" y="462" width="683" height="40" rx="20" ry="20"/>
        <rect class="cls-2" x="235" y="547" width="683" height="40" rx="20" ry="20"/>
        <rect class="cls-2" x="106" y="646" width="812" height="40" rx="20" ry="20"/>
        <rect class="cls-2" x="404" y="181" width="514" height="40" rx="20" ry="20"/>
        <rect class="cls-2" x="404" y="256" width="219.16" height="40" rx="20" ry="20"/>
    </g>
    <g id="Layer_4" data-name="Layer 4">
        <path class="cls-2" d="M152.55,424.44c-3.53,0-6.39-2.86-6.38-6.39,0-1.69,.67-3.32,1.87-4.51l44.7-44.7c2.52-2.47,6.56-2.43,9.03,.08,2.44,2.48,2.44,6.46,0,8.95l-44.7,44.7c-1.2,1.2-2.82,1.87-4.52,1.87Z"/>
        <path class="cls-2" d="M152.55,424.44c-1.69,0-3.32-.67-4.52-1.87l-17.46-14.95c-2.47-2.52-2.43-6.56,.08-9.03,2.48-2.44,6.46-2.44,8.95,0l17.46,14.95c2.49,2.49,2.49,6.54,0,9.03-1.2,1.2-2.82,1.87-4.51,1.87Z"/>
        <path class="cls-2" d="M152.55,509.44c-3.53,0-6.39-2.86-6.38-6.39,0-1.69,.67-3.32,1.87-4.51l44.7-44.7c2.52-2.47,6.56-2.43,9.03,.08,2.44,2.48,2.44,6.46,0,8.95l-44.7,44.7c-1.2,1.2-2.82,1.87-4.52,1.87Z"/>
        <path class="cls-2" d="M152.55,509.44c-1.69,0-3.32-.67-4.52-1.87l-17.46-14.95c-2.47-2.52-2.43-6.56,.08-9.03,2.48-2.44,6.46-2.44,8.95,0l17.46,14.95c2.49,2.49,2.49,6.54,0,9.03-1.2,1.2-2.82,1.87-4.51,1.87Z"/>
        <path class="cls-2" d="M152.55,594.44c-3.53,0-6.39-2.86-6.38-6.39,0-1.69,.67-3.32,1.87-4.51l44.7-44.7c2.52-2.47,6.56-2.43,9.03,.08,2.44,2.48,2.44,6.46,0,8.95l-44.7,44.7c-1.2,1.2-2.82,1.87-4.52,1.87Z"/>
        <path class="cls-2" d="M152.55,594.44c-1.69,0-3.32-.67-4.52-1.87l-17.46-14.95c-2.47-2.52-2.43-6.56,.08-9.03,2.48-2.44,6.46-2.44,8.95,0l17.46,14.95c2.49,2.49,2.49,6.54,0,9.03-1.2,1.2-2.82,1.87-4.51,1.87Z"/>
    </g>
</svg>